<svg xmlns="http://www.w3.org/2000/svg" width="50px" height="50px" viewBox="0 0 100 100">
  <!-- Green circular background -->
  <circle cx="50" cy="50" r="50" fill="green" />

  <!-- Centered and scaled solid black play button -->
  <g transform="translate(50, 50) scale(0.9) translate(-36, -36)">
    <path 
      fill="black"
      d="M19.5816,55.6062 
         c0.4848,0.1782,1.0303,0.297,1.5758,0.297
         c0.8485,0,1.697-0.297,2.4242-0.7722
         l30-15.9793l0.303-0.297 
         c0.7879-0.7722,1.2121-1.7227,1.2121-2.7919
         c0-1.0692-0.4242-2.0791-1.2121-2.7919
         l-0.303-0.297l-30-16.0981 
         c-1.0909-0.8316-2.6667-1.0098-4-0.4752
         c-1.5152,0.594-2.4848,2.0791-2.4848,3.683
         v31.8397 
         C17.0967,53.5272,18.0664,55.0122,19.5816,55.6062z" />
  </g>
</svg>

